<svg width="104" height="20" viewBox="0 0 104 20" fill="none" xmlns="http://www.w3.org/2000/svg">
<g opacity="0.6" clip-path="url(#clip0_274_23341)">
<path d="M98.4225 4.86138C98.4494 4.85675 98.4774 4.87296 98.4845 4.89958L98.757 5.78407C98.7617 5.80144 98.7757 5.81533 98.7933 5.81996L99.349 5.98899C99.3794 5.99825 99.4121 5.97973 99.418 5.94847L99.7011 4.70972C99.7069 4.68425 99.7397 4.67846 99.7537 4.70046L101.313 7.10386L100.819 5.15081L99.8496 3.55664C99.8368 3.53464 99.8052 3.53348 99.79 3.55548L99.4414 4.05098L99.1372 4.48512C99.1243 4.50365 99.0963 4.50596 99.0811 4.4886L98.8869 4.26747L98.7067 4.0614C98.6974 4.05214 98.6833 4.04635 98.6716 4.05098L97.4269 4.37167L97.1286 4.86369L96.9707 5.12302L97.5147 5.02462L98.4225 4.86022V4.86138Z" fill="#8C8CA6"/>
<path d="M103.178 14.477L101.956 9.63896L101.377 11.1498C101.369 11.1706 101.349 11.1845 101.325 11.1845H99.6584C99.6385 11.1845 99.6198 11.1741 99.6104 11.1567L98.8805 9.86472C98.8653 9.83809 98.8325 9.82999 98.8056 9.84388L98.3587 10.0835C98.34 10.0928 98.3166 10.0916 98.3002 10.0789L97.2334 9.29281C97.2205 9.28355 97.2029 9.28007 97.1866 9.28355L93.9824 10.0963L95.0891 11.2806C95.1101 11.3026 95.1394 11.3142 95.1698 11.3107L96.4227 11.1891C96.4519 11.1868 96.48 11.1961 96.5011 11.2158L97.9458 12.6351C97.9832 12.6722 98.044 12.6722 98.0815 12.6351L98.8337 11.9162C98.8805 11.8722 98.9565 11.8838 98.9869 11.9405L100.755 15.2955L102.713 14.7086L103.114 14.5882C103.163 14.5743 103.192 14.5245 103.18 14.4747L103.178 14.477ZM101.097 11.8768L100.843 12.5402C100.831 12.5726 100.799 12.5946 100.765 12.5946H100.471C100.441 12.5946 100.413 12.5784 100.398 12.5518L100.018 11.878C100.006 11.8571 100.021 11.8317 100.046 11.8317H101.067C101.091 11.8317 101.108 11.856 101.098 11.878L101.097 11.8768Z" fill="#8C8CA6"/>
<path d="M98.7095 4.06183L98.8896 4.2679L99.0838 4.48902C99.099 4.50639 99.1271 4.50523 99.14 4.48555L99.4441 4.05141L99.7927 3.55591C99.8079 3.53507 99.8395 3.53623 99.8524 3.55706L100.822 5.15123L99.698 0.956846C99.6734 0.876964 99.5634 0.863072 99.5202 0.93485L97.4297 4.37325L98.6744 4.05256C98.6872 4.04909 98.7013 4.05256 98.7095 4.06298V4.06183Z" fill="#8C8CA6"/>
<path d="M102.315 8.6441L101.316 7.10319L99.7569 4.69978C99.7429 4.67894 99.7101 4.68473 99.7043 4.70904L99.4212 5.94779C99.4142 5.97905 99.3826 5.99641 99.3522 5.98831L98.7965 5.81928C98.7789 5.81465 98.7649 5.80076 98.7602 5.7834L98.4877 4.8989C98.4795 4.87228 98.4526 4.85607 98.4257 4.8607L97.519 5.02509L96.9751 5.1235L96.4159 5.22422C96.4089 5.22538 96.4019 5.22885 96.396 5.23233L93.5955 7.01867C93.4878 7.08698 93.4142 7.1958 93.3896 7.31968L93.2153 8.22501C93.2141 8.23543 93.2153 8.24585 93.2188 8.25511L93.9745 10.1005L93.985 10.0982L97.1892 9.28547C97.2044 9.28084 97.2219 9.28547 97.236 9.29473L98.3028 10.0808C98.3204 10.0936 98.3426 10.0947 98.3613 10.0854L98.8082 9.8458C98.8351 9.83191 98.8679 9.84117 98.8831 9.86664L99.613 11.1586C99.6224 11.176 99.6411 11.1864 99.661 11.1864H101.328C101.351 11.1864 101.371 11.1725 101.379 11.1517L101.959 9.64089L102.322 8.69272C102.327 8.67536 102.325 8.65799 102.315 8.6441V8.6441ZM95.5725 8.13355L94.9115 8.51212L94.887 8.52601C94.8624 8.5399 94.8343 8.53875 94.8109 8.52601L94.226 8.18564C94.1827 8.16133 94.1769 8.10229 94.2108 8.06756L94.5805 7.70867C94.6015 7.68899 94.6308 7.68204 94.6588 7.6913L95.2812 7.90316L95.5584 7.99694C95.6193 8.01778 95.6275 8.09997 95.5713 8.13239L95.5725 8.13355Z" fill="#8C8CA6"/>
<path d="M101.065 11.8327H100.044C100.019 11.8327 100.004 11.8593 100.016 11.879L100.396 12.5528C100.411 12.5794 100.439 12.5956 100.47 12.5956H100.763C100.798 12.5956 100.83 12.5748 100.842 12.5412L101.095 11.8779C101.105 11.8559 101.088 11.8315 101.064 11.8315L101.065 11.8327Z" fill="#8C8CA6"/>
<path d="M94.4631 13.4231L92.0766 13.3988C92.0684 13.3988 92.0673 13.3873 92.0766 13.3861L94.242 13.077L95.5884 12.3129L93.8501 12.7331L90.736 12.6718C90.7033 12.6718 90.6728 12.6567 90.6518 12.6313L90.4447 12.3743C90.4131 12.3361 90.4073 12.2828 90.4295 12.2388L90.6717 11.7526C90.6787 11.7398 90.6705 11.7248 90.6565 11.7236L90.4167 11.6924C90.3979 11.6901 90.3921 11.6657 90.4073 11.6553L91.1455 11.1193C91.1735 11.0985 91.1735 11.0568 91.1455 11.0371L90.6424 10.6921C90.6062 10.6666 90.5617 10.6551 90.5161 10.6597L90.4284 10.6678L89.4691 10.7569C89.4223 10.7616 89.3907 10.8056 89.4001 10.8507L89.5802 11.638L89.9522 12.2897L90.1534 12.5375L91.6415 13.8689C91.6742 13.8978 91.7163 13.9105 91.7584 13.9071L92.7329 13.7982L93.8606 13.8226C93.9495 13.8237 94.0384 13.8434 94.1203 13.8804L94.7871 14.1757L95.6691 13.0504L94.5145 13.4185C94.497 13.4231 94.4818 13.4255 94.4654 13.4255L94.4631 13.4231Z" fill="#8C8CA6"/>
<path d="M93.0882 5.69986L93.5666 5.06312C93.6614 4.93693 93.8111 4.86283 93.9702 4.86283H95.422L92.5091 1.86552C92.4413 1.79606 92.3231 1.85626 92.3418 1.95119L93.0882 5.69986V5.69986Z" fill="#8C8CA6"/>
<path d="M92.2642 8.15667L92.1811 7.75495C92.1624 7.66117 92.0887 7.58592 91.9939 7.56508L91.7319 7.50488L91.6231 7.85798C91.6126 7.89387 91.6137 7.93208 91.6278 7.96681L91.8079 8.39748C91.8278 8.44494 91.8267 8.4982 91.8044 8.54451L91.4383 9.3248L91.4336 9.33291L92.2373 8.26666C92.2618 8.2354 92.27 8.19604 92.263 8.15899L92.2642 8.15667Z" fill="#8C8CA6"/>
<path d="M100.751 15.3L98.9838 11.9449C98.9546 11.8882 98.8774 11.8766 98.8306 11.9206L98.0784 12.6396C98.0398 12.6755 97.9801 12.6755 97.9427 12.6396L96.498 11.2202C96.4769 11.1994 96.4488 11.1901 96.4196 11.1936L95.1667 11.3152C95.1375 11.3186 95.107 11.307 95.086 11.285L93.9793 10.1007L93.9688 10.103L93.2131 8.25763C93.2084 8.24837 93.2084 8.2368 93.2096 8.22753L93.3839 7.3222C93.4085 7.19833 93.4822 7.0895 93.5898 7.0212L96.3903 5.23485C96.3903 5.23485 96.4032 5.22791 96.4102 5.22675L96.9694 5.12603L97.1273 4.8667H93.9676C93.8085 4.8667 93.6588 4.94079 93.5641 5.06698L93.0856 5.70372L91.7298 7.50628L91.9918 7.56648C92.0866 7.58848 92.1603 7.66257 92.179 7.75635L92.262 8.15807C92.2691 8.19628 92.262 8.23564 92.2375 8.26574L91.4338 9.33199L91.4385 9.32389L90.4243 10.6657L90.512 10.6576C90.5564 10.6529 90.6009 10.6645 90.6383 10.69L91.1414 11.035C91.1706 11.0547 91.1706 11.0975 91.1414 11.1172L90.4032 11.6532C90.388 11.6636 90.3938 11.6879 90.4126 11.6902L90.6524 11.7215C90.6664 11.7227 90.6746 11.7377 90.6676 11.7505L90.4254 12.2367C90.4032 12.2807 90.409 12.3339 90.4406 12.3721L90.6477 12.6292C90.6687 12.6546 90.6992 12.6697 90.7319 12.6697L93.846 12.731L95.5843 12.3108L94.2379 13.0749L92.0725 13.384C92.0643 13.384 92.0655 13.3967 92.0725 13.3967L94.459 13.421C94.4753 13.421 94.4917 13.4187 94.5069 13.4141L95.6615 13.0459L94.7795 14.1712L95.9704 16.6221C95.9996 16.6823 96.0698 16.7136 96.1342 16.6939L100.747 15.3012L100.751 15.3Z" fill="#8C8CA6"/>
<path d="M95.2842 7.90244L94.6618 7.69058C94.6349 7.68132 94.6045 7.68826 94.5834 7.70794L94.2138 8.06683C94.1787 8.10157 94.1857 8.15945 94.229 8.18492L94.8139 8.52529C94.8373 8.53918 94.8665 8.53918 94.8899 8.52529L94.9145 8.51139L95.5754 8.13282C95.6316 8.10041 95.6234 8.01821 95.5626 7.99737L95.2865 7.90244H95.2842Z" fill="#8C8CA6"/>
<path d="M3.11523 5.95837C3.50595 5.95837 3.87562 6.03246 4.22305 6.17834C4.57166 6.32536 4.87464 6.52681 5.13551 6.78498C5.39638 7.04315 5.6011 7.34299 5.74967 7.68683C5.89824 8.02951 5.97311 8.39535 5.97311 8.78203C5.97311 9.24048 5.87016 9.66536 5.66427 10.0601C5.45721 10.4538 5.17997 10.7791 4.8337 11.0372L5.76839 13.5831C5.80465 13.6838 5.79178 13.781 5.73095 13.8725C5.67012 13.9663 5.58121 14.0126 5.46423 14.0126H4.42192C4.26985 14.0126 4.16807 13.9408 4.11777 13.7984L3.37844 11.8002C3.32697 11.6647 3.22637 11.5953 3.07429 11.5953H1.95477C1.86002 11.5953 1.78281 11.6254 1.72198 11.6856C1.66115 11.7458 1.62956 11.8245 1.62956 11.9159V13.6872C1.62956 13.781 1.59681 13.8574 1.53247 13.9176C1.46696 13.9778 1.39092 14.0091 1.30318 14.0091H0.32521C0.230455 14.0091 0.153246 13.979 0.0924155 13.9176C0.0315848 13.8574 0 13.7799 0 13.6872V6.27674C0 6.18297 0.030415 6.10656 0.0924155 6.04636C0.153246 5.98616 0.232794 5.95605 0.32521 5.95605H3.11406V5.95837H3.11523ZM1.9536 7.5699C1.85885 7.5699 1.78164 7.6 1.72081 7.66136C1.65998 7.72156 1.62839 7.79913 1.62839 7.89175V9.66304C1.62839 9.75682 1.65881 9.83323 1.72081 9.89343C1.78164 9.95363 1.86001 9.98373 1.9536 9.98373H3.11523C3.28135 9.98373 3.43927 9.95247 3.58784 9.88764C3.73641 9.82281 3.86626 9.73714 3.97856 9.62947C4.09086 9.52296 4.17977 9.39445 4.24528 9.24743C4.31079 9.1004 4.34355 8.94526 4.34355 8.78087C4.34355 8.61647 4.31079 8.44976 4.24528 8.30273C4.17977 8.1557 4.09086 8.02836 3.97856 7.92069C3.86626 7.81418 3.73641 7.72735 3.58784 7.66252C3.43927 7.59769 3.28135 7.56643 3.11523 7.56643H1.9536V7.5699Z" fill="#8C8CA6"/>
<path d="M7.89123 6.05075C7.95674 5.99055 8.03278 5.96045 8.12052 5.96045H12.9016C12.9963 5.96045 13.0735 5.99055 13.1344 6.05075C13.1952 6.11095 13.2268 6.18968 13.2268 6.28114V7.14016C13.2268 7.23393 13.1964 7.31034 13.1344 7.37054C13.0735 7.43074 12.994 7.462 12.9016 7.462H9.75125C9.66351 7.462 9.58747 7.4921 9.52196 7.55346C9.45645 7.61366 9.4237 7.69123 9.4237 7.78384V8.91145C9.4237 9.00523 9.45645 9.08164 9.52196 9.14184C9.58747 9.20204 9.66351 9.2333 9.75125 9.2333H11.816C11.9107 9.2333 11.9879 9.2634 12.0488 9.32476C12.1096 9.38496 12.1412 9.46252 12.1412 9.55514V10.4142C12.1412 10.5079 12.1108 10.5843 12.0488 10.6445C11.9879 10.7047 11.9084 10.7348 11.816 10.7348H9.75125C9.66351 10.7348 9.58747 10.7649 9.52196 10.8263C9.45645 10.8865 9.4237 10.9652 9.4237 11.0567V12.1843C9.4237 12.2781 9.45645 12.3545 9.52196 12.4147C9.58747 12.4749 9.66351 12.5061 9.75125 12.5061H12.9016C12.9963 12.5061 13.0735 12.5362 13.1344 12.5964C13.1952 12.6566 13.2268 12.7354 13.2268 12.8268V13.6859C13.2268 13.7796 13.1964 13.856 13.1344 13.9162C13.0735 13.9764 12.994 14.0077 12.9016 14.0077H8.12052C8.03278 14.0077 7.95674 13.9776 7.89123 13.9162C7.82572 13.856 7.79297 13.7785 7.79297 13.6859V6.28114C7.79297 6.18968 7.82455 6.11095 7.89123 6.05075Z" fill="#8C8CA6"/>
<path d="M18.5391 12.4034C18.8433 12.4034 19.1322 12.356 19.4083 12.2576C19.6832 12.1615 19.93 12.0226 20.1476 11.8443C20.2131 11.7945 20.2868 11.7725 20.371 11.7794C20.4541 11.7864 20.5255 11.8188 20.5828 11.8755L21.2777 12.5516C21.3502 12.6234 21.3841 12.7056 21.3818 12.7982C21.3771 12.892 21.3361 12.9696 21.2566 13.0344C20.8881 13.3423 20.4716 13.582 20.0131 13.7533C19.5522 13.9247 19.062 14.0115 18.5403 14.0115C17.96 14.0115 17.4137 13.9027 16.9002 13.6839C16.3855 13.4662 15.9398 13.1675 15.5584 12.7913C15.1782 12.415 14.8787 11.9728 14.6623 11.4645C14.4447 10.9563 14.3359 10.4157 14.3359 9.84259C14.3359 9.26952 14.4482 8.71961 14.6728 8.21485C14.8975 7.71009 15.2016 7.269 15.5853 6.89274C15.969 6.51649 16.4182 6.22011 16.9329 6.00015C17.4477 5.7825 17.994 5.67599 18.573 5.68294C19.0878 5.68988 19.5721 5.77903 20.0236 5.95152C20.4752 6.12287 20.8881 6.36367 21.2566 6.67046C21.3361 6.72835 21.3759 6.8036 21.3759 6.89506C21.3759 6.98652 21.3432 7.07103 21.2777 7.14165L20.5828 7.82933C20.5243 7.88722 20.4541 7.91732 20.371 7.92079C20.288 7.92542 20.2131 7.90111 20.1476 7.85133C19.93 7.67304 19.6844 7.53412 19.4083 7.43803C19.1322 7.34194 18.8444 7.29215 18.5391 7.29215C18.1846 7.29215 17.8489 7.36046 17.5342 7.49707C17.2195 7.63252 16.9458 7.81544 16.713 8.04467C16.4814 8.27389 16.2989 8.54364 16.1644 8.85622C16.0298 9.16765 15.9632 9.49875 15.9632 9.84954C15.9632 10.2003 16.0298 10.5303 16.1644 10.8382C16.2989 11.1462 16.4837 11.4159 16.7189 11.6498C16.9552 11.8836 17.2277 12.0654 17.5401 12.1974C17.8524 12.3351 18.1846 12.4 18.5403 12.4L18.5391 12.4034Z" fill="#8C8CA6"/>
<path d="M26.5141 5.69092C27.0943 5.69092 27.6406 5.8009 28.1542 6.01855C28.6689 6.2362 29.1146 6.53489 29.496 6.91114C29.8773 7.2874 30.1768 7.72965 30.3979 8.23788C30.6178 8.74612 30.729 9.28677 30.729 9.85983C30.729 10.4329 30.6178 10.9712 30.3979 11.476C30.178 11.9808 29.8762 12.4218 29.496 12.7981C29.1158 13.1744 28.6677 13.4719 28.1542 13.6907C27.6395 13.9083 27.0932 14.0183 26.5141 14.0183C25.935 14.0183 25.3899 13.9095 24.8787 13.6907C24.3686 13.4731 23.9218 13.1744 23.5416 12.7981C23.1614 12.4218 22.8607 11.9819 22.6397 11.476C22.4197 10.9712 22.3086 10.4329 22.3086 9.85983C22.3086 9.28677 22.4197 8.74727 22.6397 8.23788C22.8596 7.72965 23.1614 7.2874 23.5416 6.91114C23.9218 6.53489 24.3663 6.23851 24.8787 6.01855C25.3887 5.79858 25.9339 5.69092 26.5141 5.69092V5.69092ZM26.5141 12.4033C26.8686 12.4033 27.2043 12.3373 27.519 12.2042C27.8337 12.0711 28.1097 11.8881 28.3437 11.6566C28.58 11.4227 28.7637 11.153 28.8982 10.845C29.0327 10.5371 29.0994 10.2083 29.0994 9.85636C29.0994 9.50442 29.0327 9.17447 28.8982 8.86305C28.7637 8.55162 28.5788 8.27956 28.3437 8.04686C28.1074 7.81532 27.8337 7.63124 27.519 7.49926C27.2043 7.36728 26.8686 7.30014 26.5141 7.30014C26.1596 7.30014 25.8262 7.36613 25.5139 7.49926C25.2016 7.6324 24.929 7.81532 24.6927 8.04686C24.4564 8.28072 24.2727 8.55162 24.1382 8.86305C24.0037 9.17447 23.937 9.50557 23.937 9.85636C23.937 10.2071 24.0037 10.5371 24.1382 10.845C24.2727 11.153 24.4576 11.4227 24.6927 11.6566C24.929 11.8905 25.2016 12.0722 25.5139 12.2042C25.8262 12.3373 26.1585 12.4033 26.5141 12.4033Z" fill="#8C8CA6"/>
<path d="M35.4848 5.9585C35.8755 5.9585 36.2451 6.03259 36.5926 6.17846C36.9412 6.32549 37.2442 6.52693 37.505 6.7851C37.7659 7.04327 37.9706 7.34312 38.1192 7.68696C38.2678 8.02964 38.3426 8.39548 38.3426 8.78215C38.3426 9.24061 38.2397 9.66549 38.0338 10.0603C37.8267 10.4539 37.5495 10.7792 37.2032 11.0374L38.1379 13.5832C38.1742 13.6839 38.1613 13.7811 38.1005 13.8726C38.0396 13.9664 37.9507 14.0127 37.8338 14.0127H36.7914C36.6394 14.0127 36.5376 13.9409 36.4873 13.7985L35.7456 11.8026C35.6942 11.6672 35.5936 11.5977 35.4415 11.5977H34.322C34.2272 11.5977 34.15 11.6278 34.0892 11.688C34.0283 11.7482 33.9967 11.8269 33.9967 11.9184V13.6897C33.9967 13.7835 33.964 13.8599 33.8997 13.9201C33.8341 13.9803 33.7581 14.0115 33.6704 14.0115H32.6924C32.5976 14.0115 32.5204 13.9814 32.4596 13.9201C32.3988 13.8599 32.3672 13.7823 32.3672 13.6897V6.28034C32.3672 6.18656 32.3976 6.11016 32.4596 6.04996C32.5204 5.98975 32.6 5.95965 32.6924 5.95965H35.4836L35.4848 5.9585ZM34.3208 7.57003C34.226 7.57003 34.1488 7.60013 34.088 7.66149C34.0272 7.72169 33.9956 7.79926 33.9956 7.89187V9.66317C33.9956 9.75695 34.026 9.83335 34.088 9.89356C34.1488 9.95376 34.2272 9.98386 34.3208 9.98386H35.4824C35.6485 9.98386 35.8065 9.9526 35.955 9.88777C36.1036 9.82293 36.2334 9.73726 36.3457 9.6296C36.458 9.52309 36.547 9.39458 36.6125 9.24755C36.678 9.10052 36.7107 8.94539 36.7107 8.78099C36.7107 8.6166 36.678 8.44989 36.6125 8.30286C36.547 8.15583 36.458 8.02848 36.3457 7.92082C36.2334 7.81431 36.1036 7.72748 35.955 7.66265C35.8065 7.59781 35.6485 7.56656 35.4824 7.56656H34.3208V7.57003Z" fill="#8C8CA6"/>
<path d="M42.7836 5.9585C43.3475 5.9585 43.8774 6.06385 44.3699 6.27571C44.8624 6.48757 45.2929 6.77468 45.6625 7.14052C46.031 7.5052 46.3235 7.93239 46.5376 8.41863C46.7516 8.90603 46.8581 9.42815 46.8581 9.98733C46.8581 10.5465 46.7516 11.0686 46.5376 11.556C46.3235 12.0434 46.0334 12.4683 45.6625 12.8341C45.294 13.1988 44.8624 13.4871 44.3699 13.6989C43.8774 13.9108 43.3475 14.0162 42.7836 14.0162H40.6651C40.5703 14.0162 40.4931 13.9861 40.4323 13.9247C40.3714 13.8645 40.3398 13.7869 40.3398 13.6943V6.2815C40.3398 6.18772 40.3703 6.11131 40.4323 6.05111C40.4931 5.99091 40.5726 5.96081 40.6651 5.96081H42.7836V5.9585ZM45.2285 9.98501C45.2285 9.65622 45.1642 9.34364 45.039 9.05074C44.9127 8.75668 44.7372 8.49851 44.5126 8.27623C44.288 8.05395 44.0271 7.88145 43.73 7.75526C43.4328 7.63023 43.1182 7.56771 42.7848 7.56771H42.2958C42.201 7.56771 42.1238 7.59781 42.063 7.65917C42.0022 7.71937 41.9706 7.79694 41.9706 7.88956V12.0782C41.9706 12.1719 42.001 12.2483 42.063 12.3085C42.1238 12.3687 42.2022 12.4 42.2958 12.4H42.7848C43.117 12.4 43.4328 12.3363 43.73 12.2124C44.0271 12.0874 44.288 11.9138 44.5126 11.6915C44.7372 11.4692 44.9138 11.2133 45.039 10.9228C45.1654 10.6356 45.2285 10.3231 45.2285 9.98501Z" fill="#8C8CA6"/>
<path d="M54.654 8.78411C54.654 9.17078 54.5791 9.53662 54.4305 9.8793C54.282 10.222 54.0772 10.5218 53.8164 10.7765C53.5555 11.0301 53.2525 11.2303 52.9039 11.3774C52.5553 11.5244 52.1868 11.5985 51.7961 11.5985H50.6345C50.5397 11.5985 50.4625 11.6286 50.4017 11.6888C50.3408 11.749 50.3092 11.8277 50.3092 11.9192V13.6905C50.3092 13.7843 50.2765 13.8607 50.2122 13.9209C50.1466 13.9811 50.0706 14.0123 49.9829 14.0123H49.0049C48.9101 14.0123 48.8329 13.9822 48.7721 13.9209C48.7113 13.8607 48.6797 13.7831 48.6797 13.6905V6.28114C48.6797 6.18736 48.7101 6.11095 48.7721 6.05075C48.8329 5.99055 48.9125 5.96045 49.0049 5.96045H51.7973C52.188 5.96045 52.5576 6.03454 52.9051 6.18041C53.2537 6.32744 53.5567 6.52889 53.8175 6.78705C54.0784 7.04522 54.2831 7.34507 54.4317 7.68891C54.5791 8.03391 54.654 8.39859 54.654 8.78526V8.78411ZM53.0232 8.78411C53.0232 8.61276 52.9905 8.453 52.925 8.30597C52.8595 8.15894 52.7706 8.03159 52.6582 7.92393C52.5459 7.81742 52.4161 7.73059 52.2675 7.66576C52.119 7.60093 51.961 7.56967 51.7949 7.56967H50.6333C50.5385 7.56967 50.4613 7.59977 50.4005 7.66113C50.3397 7.72133 50.3081 7.79889 50.3081 7.89151V9.66281C50.3081 9.75658 50.3385 9.83299 50.4005 9.89319C50.4613 9.95339 50.5397 9.98349 50.6333 9.98349H51.7949C51.961 9.98349 52.119 9.95223 52.2675 9.8874C52.4161 9.82257 52.5459 9.7369 52.6582 9.62923C52.7706 9.52272 52.8595 9.39422 52.925 9.24719C52.9916 9.10016 53.0232 8.94503 53.0232 8.78063V8.78411Z" fill="#8C8CA6"/>
<path d="M60.3188 5.69092C60.899 5.69092 61.4453 5.8009 61.9589 6.01855C62.4736 6.2362 62.9193 6.53489 63.3007 6.91114C63.682 7.2874 63.9815 7.72965 64.2026 8.23788C64.4225 8.74612 64.5337 9.28677 64.5337 9.85983C64.5337 10.4329 64.4225 10.9712 64.2026 11.476C63.9827 11.9808 63.6809 12.4218 63.3007 12.7981C62.9205 13.1744 62.4724 13.4719 61.9589 13.6907C61.4442 13.9083 60.8979 14.0183 60.3188 14.0183C59.7397 14.0183 59.1946 13.9095 58.6834 13.6907C58.1733 13.4731 57.7265 13.1744 57.3463 12.7981C56.9661 12.4218 56.6654 11.9819 56.4443 11.476C56.2244 10.9712 56.1133 10.4329 56.1133 9.85983C56.1133 9.28677 56.2244 8.74727 56.4443 8.23788C56.6643 7.72965 56.9661 7.2874 57.3463 6.91114C57.7265 6.53489 58.171 6.23851 58.6834 6.01855C59.1934 5.79858 59.7386 5.69092 60.3188 5.69092V5.69092ZM60.3188 12.4033C60.6732 12.4033 61.009 12.3373 61.3237 12.2042C61.6384 12.0711 61.9144 11.8881 62.1484 11.6566C62.3847 11.4227 62.5684 11.153 62.7029 10.845C62.8374 10.5371 62.9041 10.2083 62.9041 9.85636C62.9041 9.50442 62.8374 9.17447 62.7029 8.86305C62.5684 8.55162 62.3835 8.27956 62.1484 8.04686C61.9121 7.81532 61.6384 7.63124 61.3237 7.49926C61.009 7.36728 60.6732 7.30014 60.3188 7.30014C59.9643 7.30014 59.6309 7.36613 59.3186 7.49926C59.0063 7.6324 58.7337 7.81532 58.4974 8.04686C58.2611 8.28072 58.0774 8.55162 57.9429 8.86305C57.8084 9.17447 57.7417 9.50557 57.7417 9.85636C57.7417 10.2071 57.8084 10.5371 57.9429 10.845C58.0774 11.153 58.2622 11.4227 58.4974 11.6566C58.7337 11.8905 59.0063 12.0722 59.3186 12.2042C59.6309 12.3373 59.9632 12.4033 60.3188 12.4033Z" fill="#8C8CA6"/>
<path d="M66.2643 13.9251C66.2035 13.8649 66.1719 13.7874 66.1719 13.6948V6.28309C66.1719 6.18931 66.2023 6.1129 66.2643 6.0527C66.3251 5.9925 66.4047 5.9624 66.4971 5.9624H67.4751C67.5628 5.9624 67.6388 5.9925 67.7043 6.0527C67.7699 6.1129 67.8014 6.19163 67.8014 6.28309V13.6936C67.8014 13.7874 67.7687 13.8638 67.7043 13.924C67.6388 13.9842 67.5628 14.0154 67.4751 14.0154H66.4971C66.4023 14.0143 66.3251 13.9842 66.2643 13.924V13.9251Z" fill="#8C8CA6"/>
<path d="M74.6038 6.05093C74.6646 5.99073 74.743 5.96063 74.8365 5.96063H75.8145C75.9023 5.96063 75.9783 5.99073 76.0438 6.05093C76.1093 6.11113 76.1421 6.18986 76.1421 6.28132V13.6918C76.1421 13.7856 76.1093 13.862 76.0438 13.9222C75.9783 13.9824 75.9023 14.0137 75.8145 14.0137H74.6845C74.5605 14.0137 74.4704 13.9639 74.4131 13.8632L71.6429 9.56574C71.6137 9.52291 71.5774 9.49396 71.5353 9.47891C71.492 9.46502 71.4476 9.46271 71.4055 9.47313C71.3622 9.48355 71.3247 9.50901 71.2978 9.54838C71.2686 9.58774 71.2546 9.63173 71.2546 9.68267V13.6884C71.2546 13.7821 71.2218 13.8585 71.1575 13.9187C71.092 13.9789 71.0159 14.0102 70.9282 14.0102H69.9502C69.8555 14.0102 69.7783 13.9801 69.7174 13.9187C69.6566 13.8585 69.625 13.781 69.625 13.6884V6.28016C69.625 6.18638 69.6554 6.10998 69.7174 6.04977C69.7783 5.98957 69.8578 5.95947 69.9502 5.95947H71.0697C71.1937 5.95947 71.2838 6.01041 71.3411 6.10998L74.1113 10.3854C74.1405 10.4282 74.1768 10.4572 74.2189 10.4722C74.2622 10.4861 74.3066 10.4884 74.3487 10.478C74.3908 10.4676 74.4306 10.4468 74.4622 10.4132C74.495 10.3819 74.5102 10.3368 74.5102 10.2789V6.28363C74.5102 6.18986 74.5418 6.11229 74.6026 6.05209L74.6038 6.05093Z" fill="#8C8CA6"/>
<path d="M78.0615 6.05075C78.1271 5.99055 78.2031 5.96045 78.2908 5.96045H83.6158C83.7106 5.96045 83.7878 5.99055 83.8486 6.05075C83.9095 6.11095 83.9411 6.18968 83.9411 6.28114V7.14016C83.9411 7.23393 83.9106 7.31034 83.8486 7.37054C83.7878 7.43074 83.7083 7.462 83.6158 7.462H82.0927C82.005 7.462 81.929 7.4921 81.8635 7.55346C81.7979 7.61366 81.7652 7.69123 81.7652 7.78384V13.6916C81.7652 13.7854 81.7348 13.8618 81.6728 13.922C81.6119 13.9822 81.5324 14.0135 81.44 14.0135H80.462C80.3743 14.0135 80.2982 13.9834 80.2327 13.922C80.1672 13.8618 80.1345 13.7843 80.1345 13.6916V7.78384C80.1345 7.69007 80.104 7.61366 80.042 7.55346C79.9812 7.49326 79.9017 7.462 79.8093 7.462H78.2885C78.2007 7.462 78.1247 7.4319 78.0592 7.37054C77.9937 7.31034 77.9609 7.23277 77.9609 7.14016V6.28114C77.9633 6.18968 77.9972 6.11095 78.0627 6.05075H78.0615Z" fill="#8C8CA6"/>
</g>
<defs>
<clipPath id="clip0_274_23341">
<rect width="103.333" height="20" fill="white"/>
</clipPath>
</defs>
</svg>
